<svg xmlns="http://www.w3.org/2000/svg" width="888.521" height="111.97" viewBox="0 0 888.521 111.97">
  <g id="Group_156" data-name="Group 156" transform="translate(-820.373 -1816.846)">
    <g id="Group_10" data-name="Group 10">
      <path id="Path_40" data-name="Path 40" d="M872.232,1872.832v1.954l4.4-2.594,4.4,2.594v-1.954l-4.4-2.594Zm9.1,7.246a16.489,16.489,0,0,0-1.027,2.782c1.877,2.35-1.034,3.54-1.034,3.606,0,0-.218,4.066-.435,5.053a8.016,8.016,0,0,1-.316-1.53c.028-.582-.33-.707-.609-.488a.474.474,0,0,0-.131-.076c0,1.78.041,3.617.131,3.115a8.956,8.956,0,0,0,.8,2.657c.545.911,1.426,1.282,4.015,2.95a21.33,21.33,0,0,1-.418,3.305c-.19.9.939,2.083,1.26,1.218a33.575,33.575,0,0,0,1.872-11.757,10.045,10.045,0,0,1,1.837.158,1.389,1.389,0,0,1,.936,1.832c-.489,2.117-1.521,6.122-1.521,6.122-.251.888,1.555.913,1.806.025,0,0,1.817-5.411,2.118-6.351.5-1.551.57-3.929-1.311-4.363-1.483-.343-3.841-.807-3.841-.807-.554-.125-1.036,1.106-1.117,2.119-1.019-.073-2.369.24-2.283.812a29.4,29.4,0,0,1,.693,6.713,11.716,11.716,0,0,1-1.582-1.541.662.662,0,0,0,.32-.611l-1.126-1.852a5.194,5.194,0,0,1,.987-3.692l.219.209c.67.636,4.009-2.3,3.34-2.931a8.1,8.1,0,0,0-2.525-2.747,5.378,5.378,0,0,1,1.14-4.581l.176-.088c3.35,2.689,6.083,5.6,6.828,8.719a13.081,13.081,0,0,0-5.439-9.418l.371-.187c.589-.9-1.04-1.794-2.017-1.143l-.238.169q-.583-.3-1.228-.576l-.733.57q.522.379,1.036.764A8.29,8.29,0,0,0,881.337,1880.078Zm-.841,4.191a1.8,1.8,0,1,0-1.8,1.8A1.8,1.8,0,0,0,880.5,1884.269Zm-8.574-4.191a8.294,8.294,0,0,0-.954-1.841q.512-.386,1.036-.764l-.733-.57q-.646.273-1.229.576l-.237-.169c-.977-.651-2.606.245-2.018,1.143l.372.187a13.08,13.08,0,0,0-5.44,9.418c.745-3.118,3.478-6.03,6.828-8.719l.176.088a5.379,5.379,0,0,1,1.141,4.581,8.1,8.1,0,0,0-2.525,2.747c-.67.635,2.669,3.567,3.339,2.931l.219-.209a5.188,5.188,0,0,1,.987,3.692l-1.125,1.852a.662.662,0,0,0,.32.611,11.778,11.778,0,0,1-1.583,1.541,29.363,29.363,0,0,1,.694-6.713c.086-.572-1.265-.885-2.284-.812-.08-1.013-.563-2.244-1.117-2.119,0,0-2.358.464-3.84.807-1.881.434-1.808,2.812-1.311,4.363.3.94,2.117,6.351,2.117,6.351.251.888,2.058.863,1.807-.025,0,0-1.033-4.005-1.522-6.122a1.389,1.389,0,0,1,.937-1.832,10.026,10.026,0,0,1,1.836-.158,33.6,33.6,0,0,0,1.872,11.757c.321.865,1.45-.315,1.26-1.218a13.169,13.169,0,0,1-.306-3.371c2.477-1.6,3.358-1.973,3.9-2.884a8.96,8.96,0,0,0,.8-2.657c.09.5.136-1.335.131-3.115a.489.489,0,0,0-.131.076c-.278-.219-.636-.094-.609.488a5.786,5.786,0,0,1-.33,1.463c-.2-.92-.42-4.986-.42-4.986,0-.066-2.911-1.256-1.035-3.606A16.4,16.4,0,0,0,871.922,1880.078Zm.841,4.191a1.8,1.8,0,1,0,1.8-1.8A1.8,1.8,0,0,0,872.763,1884.269Zm11.523-14.965h7.37v15.9h1.711v-18.727l0-.326a16.739,16.739,0,0,0-33.471,0v19.053h1.71v-15.9h7.371v5.482h2.687V1869.3H881.6v5.482h2.688ZM894.1,1855.7l-17.47-15.424L859.16,1855.7v5.953a18.129,18.129,0,0,1,34.94,0Zm-12.328-12.576,12.328,10.74v-2.31l-11-9.587Zm-10.285,0-1.327-1.157-11,9.587v2.31Zm-12.327,6.594,11-9.587,2.115,1.9,4.356-3.591,4.088,3.766,2.382-2.075,11,9.587v-3.263h-.611l2.362-9.12,2.362,9.12H897.6v5.862h3.135l-1.71,2.233v27.568s-.046,2.524-.046,3.829a22.375,22.375,0,1,1-44.749,0v-31.4l-1.71-2.233h3.136v-5.862h-.611l2.362-9.12,2.362,9.12h-.611Zm5.705,13.588,1.873-.019-1.083,3.1-1.873.018Zm6.263,0,.982,2.315.981-2.315,1.873-.019-1.083,3.1h-3.543l-1.083-3.1Zm17.266,0,1.084,3.094-1.874-.018-1.083-3.1Zm-6.263,0,1.874-.019-1.084,3.1h-3.543l-1.083-3.1,1.874.019.981,2.315Zm-16.281-3.579a11.121,11.121,0,0,1,21.56,0Z" fill="#fff" fill-rule="evenodd"/>
      <path id="Path_41" data-name="Path 41" d="M876.637,1917.684l1.316,4.165h4.46l-3.593,2.694,1.394,4.273-3.577-2.632-3.577,2.632,1.409-4.273-3.624-2.694h4.444Z" fill="#fff" fill-rule="evenodd"/>
      <path id="Path_42" data-name="Path 42" d="M850.639,1910.86l1.316,4.165h4.46l-3.593,2.694,1.394,4.273-3.577-2.632-3.577,2.632,1.409-4.273-3.624-2.694h4.445Z" fill="#fff" fill-rule="evenodd"/>
      <path id="Path_43" data-name="Path 43" d="M832.563,1892.377l1.316,4.165h4.46l-3.593,2.694,1.394,4.273-3.578-2.632-3.577,2.632,1.409-4.273-3.624-2.694h4.444Z" fill="#fff" fill-rule="evenodd"/>
      <path id="Path_44" data-name="Path 44" d="M826.165,1867.265l1.316,4.165h4.46l-3.593,2.694,1.394,4.273-3.577-2.632-3.577,2.632,1.409-4.273-3.624-2.694h4.445Z" fill="#fff" fill-rule="evenodd"/>
      <path id="Path_45" data-name="Path 45" d="M832.563,1842.126l1.316,4.165h4.46l-3.593,2.694,1.394,4.273-3.578-2.632-3.577,2.632,1.409-4.273-3.624-2.694h4.444Z" fill="#fff" fill-rule="evenodd"/>
      <path id="Path_46" data-name="Path 46" d="M850.639,1823.83l1.316,4.165h4.46l-3.593,2.694,1.394,4.273-3.577-2.632-3.577,2.632,1.409-4.273-3.624-2.694h4.445Z" fill="#fff" fill-rule="evenodd"/>
      <path id="Path_47" data-name="Path 47" d="M876.637,1816.846l1.316,4.165h4.46l-3.593,2.694,1.394,4.273-3.577-2.632-3.577,2.632,1.409-4.273-3.624-2.694h4.444Z" fill="#fff" fill-rule="evenodd"/>
      <path id="Path_48" data-name="Path 48" d="M902.106,1823.83l1.316,4.165h4.46l-3.593,2.694,1.394,4.273-3.577-2.632-3.577,2.632,1.409-4.273-3.624-2.694h4.444Z" fill="#fff" fill-rule="evenodd"/>
      <path id="Path_49" data-name="Path 49" d="M920.4,1842.126l1.316,4.165h4.46l-3.593,2.694,1.394,4.273-3.577-2.632-3.577,2.632,1.409-4.273-3.624-2.694h4.444Z" fill="#fff" fill-rule="evenodd"/>
      <path id="Path_50" data-name="Path 50" d="M927.11,1867.265l1.316,4.165h4.46l-3.593,2.694,1.394,4.273-3.577-2.632-3.577,2.632,1.409-4.273-3.624-2.694h4.444Z" fill="#fff" fill-rule="evenodd"/>
      <path id="Path_51" data-name="Path 51" d="M920.4,1892.377l1.316,4.165h4.46l-3.593,2.694,1.394,4.273-3.577-2.632-3.577,2.632,1.409-4.273-3.624-2.694h4.444Z" fill="#fff" fill-rule="evenodd"/>
      <path id="Path_52" data-name="Path 52" d="M902.106,1910.86l1.316,4.165h4.46l-3.593,2.694,1.394,4.273-3.577-2.632-3.577,2.632,1.409-4.273-3.624-2.694h4.444Z" fill="#fff" fill-rule="evenodd"/>
      <g id="Group_9" data-name="Group 9">
        <path id="Path_53" data-name="Path 53" d="M974.5,1877.825a8.145,8.145,0,0,0-.711-3.5,6.605,6.605,0,0,0-1.559-2.1,10.2,10.2,0,0,0-1.55-1.127,8.453,8.453,0,0,0,1.3-1.094,7.57,7.57,0,0,0,1.418-2.022,6.956,6.956,0,0,0,.665-3.008,8.612,8.612,0,0,0-2.517-6.474q-2.5-2.41-7.338-2.468H951.4v30.914h13.462a10.149,10.149,0,0,0,6.887-2.344A8.744,8.744,0,0,0,974.5,1877.825Zm-8.03-12.463a2.564,2.564,0,0,1-.587,1.717,2.726,2.726,0,0,1-2.151.8H959v-5.043h4.738a2.723,2.723,0,0,1,2.151.805A2.563,2.563,0,0,1,966.472,1865.362Zm.434,12.029a2.892,2.892,0,0,1-.608,1.858,2.674,2.674,0,0,1-2.173.88H959V1874.7h5.129a2.7,2.7,0,0,1,2.173.858A2.815,2.815,0,0,1,966.906,1877.391Z" fill="#fff" fill-rule="evenodd"/>
        <path id="Path_54" data-name="Path 54" d="M1005.807,1876.09v-20.062h-7.6v19.888a4.723,4.723,0,0,1-1.14,3.334,4.035,4.035,0,0,1-3.032,1.183,3.9,3.9,0,0,1-2.988-1.183,4.811,4.811,0,0,1-1.1-3.334v-19.888h-7.6v20.062a11.087,11.087,0,0,0,1.6,5.891,10.61,10.61,0,0,0,4.2,3.846,12.8,12.8,0,0,0,5.885,1.375,12.931,12.931,0,0,0,5.908-1.375,10.715,10.715,0,0,0,4.237-3.846A10.982,10.982,0,0,0,1005.807,1876.09Z" fill="#fff" fill-rule="evenodd"/>
        <path id="Path_55" data-name="Path 55" d="M1039.121,1886.942l-6.685-12.9a9.39,9.39,0,0,0,3.429-2.913,8.729,8.729,0,0,0,1.6-5.162,10.131,10.131,0,0,0-1.21-4.837,9.4,9.4,0,0,0-3.555-3.657,11.371,11.371,0,0,0-5.785-1.448h-12.246v30.914h7.595v-11.508h2.565l5.475,11.508Zm-9.246-20.972a3.1,3.1,0,0,1-.869,2.167,3.306,3.306,0,0,1-2.434.962h-4.3v-6.259h4.3a3.311,3.311,0,0,1,2.434.962A3.107,3.107,0,0,1,1029.875,1865.97Z" fill="#fff" fill-rule="evenodd"/>
        <path id="Path_56" data-name="Path 56" d="M1066.8,1877.479a12.528,12.528,0,0,0-.531-3.86,7.012,7.012,0,0,0-1.769-2.916,7.739,7.739,0,0,0-2.485-1.624,14.3,14.3,0,0,0-3.592-.939l-3.738-.521a4.31,4.31,0,0,1-1.326-.359,2.806,2.806,0,0,1-.8-.554,2.079,2.079,0,0,1-.484-.749,2,2,0,0,1-.124-.684,2.616,2.616,0,0,1,.874-1.939,4.135,4.135,0,0,1,2.863-.928,13.1,13.1,0,0,1,2.706.179,6.039,6.039,0,0,1,3.159,1.645l4.774-4.775a11.655,11.655,0,0,0-4.542-2.836,18.009,18.009,0,0,0-5.879-.852q-5.323.081-8.284,2.767a9.151,9.151,0,0,0-3.006,7,11.018,11.018,0,0,0,.526,3.545,7,7,0,0,0,1.6,2.666,10.445,10.445,0,0,0,6.207,2.737l3.738.521a4.866,4.866,0,0,1,1.25.315,2.448,2.448,0,0,1,.793.511,2.189,2.189,0,0,1,.467.814,3.288,3.288,0,0,1,.141,1.01,2.3,2.3,0,0,1-1.092,2.058,6.234,6.234,0,0,1-3.341.722,14.2,14.2,0,0,1-3.779-.483,7.087,7.087,0,0,1-3.126-1.689l-4.862,4.863a12.392,12.392,0,0,0,5.259,3.243,21.308,21.308,0,0,0,6.465.835,15.574,15.574,0,0,0,5.992-1.121,9.986,9.986,0,0,0,4.3-3.283A8.866,8.866,0,0,0,1066.8,1877.479Z" fill="#fff" fill-rule="evenodd"/>
        <path id="Path_57" data-name="Path 57" d="M1100.15,1886.942l-11.249-30.914h-5.863l-11.249,30.914h7.948l1.52-4.6h9.512l1.433,4.6ZM1088.771,1876h-5.385l2.779-8.254Z" fill="#fff" fill-rule="evenodd"/>
        <path id="Path_58" data-name="Path 58" d="M1149.638,1877.825a8.16,8.16,0,0,0-.71-3.5,6.592,6.592,0,0,0-1.56-2.1,10.153,10.153,0,0,0-1.549-1.127,8.547,8.547,0,0,0,1.3-1.094,7.591,7.591,0,0,0,1.418-2.022,6.954,6.954,0,0,0,.665-3.008,8.609,8.609,0,0,0-2.518-6.474q-2.5-2.41-7.337-2.468h-12.811v30.914H1140a10.151,10.151,0,0,0,6.887-2.344A8.747,8.747,0,0,0,1149.638,1877.825Zm-8.029-12.463a2.564,2.564,0,0,1-.587,1.717,2.729,2.729,0,0,1-2.152.8h-4.737v-5.043h4.737a2.725,2.725,0,0,1,2.152.805A2.563,2.563,0,0,1,1141.609,1865.362Zm.434,12.029a2.893,2.893,0,0,1-.608,1.858,2.675,2.675,0,0,1-2.173.88h-5.129V1874.7h5.129a2.7,2.7,0,0,1,2.173.858A2.816,2.816,0,0,1,1142.043,1877.391Z" fill="#fff" fill-rule="evenodd"/>
        <path id="Path_59" data-name="Path 59" d="M1180.944,1876.09v-20.062h-7.595v19.888a4.718,4.718,0,0,1-1.141,3.334,4.032,4.032,0,0,1-3.031,1.183,3.9,3.9,0,0,1-2.988-1.183,4.806,4.806,0,0,1-1.1-3.334v-19.888h-7.6v20.062a11.1,11.1,0,0,0,1.6,5.891,10.608,10.608,0,0,0,4.2,3.846,13.333,13.333,0,0,0,11.794,0,10.716,10.716,0,0,0,4.237-3.846A10.983,10.983,0,0,0,1180.944,1876.09Zm-3.17-26.145a3.483,3.483,0,1,0-1.02,2.452A3.459,3.459,0,0,0,1177.774,1849.945Zm-10.163,0a3.483,3.483,0,1,0-1.02,2.452A3.463,3.463,0,0,0,1167.611,1849.945Z" fill="#fff" fill-rule="evenodd"/>
        <path id="Path_60" data-name="Path 60" d="M1212.955,1856.028h-8.3l-4.818,11.114-4.861-11.114h-8.3l9.338,18.323v12.59h7.6v-12.59Z" fill="#fff" fill-rule="evenodd"/>
        <path id="Path_61" data-name="Path 61" d="M1242.129,1876.09v-20.062h-7.595v19.888a4.723,4.723,0,0,1-1.141,3.334,4.033,4.033,0,0,1-3.031,1.183,3.9,3.9,0,0,1-2.988-1.183,4.811,4.811,0,0,1-1.1-3.334v-19.888h-7.595v20.062a11.087,11.087,0,0,0,1.6,5.891,10.607,10.607,0,0,0,4.195,3.846,12.8,12.8,0,0,0,5.886,1.375,12.934,12.934,0,0,0,5.908-1.375,10.722,10.722,0,0,0,4.237-3.846A10.982,10.982,0,0,0,1242.129,1876.09Zm-3.17-26.145a3.483,3.483,0,1,0-1.02,2.452A3.463,3.463,0,0,0,1238.959,1849.945Zm-10.163,0a3.483,3.483,0,1,0-1.02,2.452A3.463,3.463,0,0,0,1228.8,1849.945Z" fill="#fff" fill-rule="evenodd"/>
        <path id="Path_62" data-name="Path 62" d="M1277.093,1886.942l-10.9-18.411,10.554-12.5h-9.295l-8.947,10.94v-10.94H1251v30.914h7.508v-9.68l2.606-3,7.123,12.677Z" fill="#fff" fill-rule="evenodd"/>
        <path id="Path_63" data-name="Path 63" d="M1304.066,1877.479a12.535,12.535,0,0,0-.532-3.86,7,7,0,0,0-1.769-2.916,7.728,7.728,0,0,0-2.485-1.624,14.288,14.288,0,0,0-3.592-.939l-3.738-.521a4.31,4.31,0,0,1-1.326-.359,2.806,2.806,0,0,1-.8-.554,2.077,2.077,0,0,1-.483-.749,1.975,1.975,0,0,1-.125-.684,2.617,2.617,0,0,1,.875-1.939,4.133,4.133,0,0,1,2.863-.928,13.094,13.094,0,0,1,2.705.179,6.039,6.039,0,0,1,3.159,1.645l4.774-4.775a11.652,11.652,0,0,0-4.541-2.836,18.012,18.012,0,0,0-5.88-.852q-5.323.081-8.284,2.767a9.151,9.151,0,0,0-3.006,7,10.987,10.987,0,0,0,.527,3.545,7,7,0,0,0,1.6,2.666,10.448,10.448,0,0,0,6.208,2.737l3.737.521a4.866,4.866,0,0,1,1.25.315,2.446,2.446,0,0,1,.793.511,2.176,2.176,0,0,1,.467.814,3.31,3.31,0,0,1,.142,1.01,2.305,2.305,0,0,1-1.092,2.058,6.241,6.241,0,0,1-3.342.722,14.2,14.2,0,0,1-3.779-.483,7.093,7.093,0,0,1-3.126-1.689l-4.861,4.863a12.389,12.389,0,0,0,5.258,3.243,21.306,21.306,0,0,0,6.465.835,15.574,15.574,0,0,0,5.992-1.121,9.995,9.995,0,0,0,4.3-3.283A8.88,8.88,0,0,0,1304.066,1877.479Zm-7.077,11.9h-4.995l-2.91,6.248h6.341Z" fill="#fff" fill-rule="evenodd"/>
        <path id="Path_64" data-name="Path 64" d="M1333.2,1886.942v-6.769h-13.421v-5.434h11.466v-6.769h-11.466V1862.8H1333.2v-6.769h-21.016v30.914Z" fill="#fff" fill-rule="evenodd"/>
        <path id="Path_65" data-name="Path 65" d="M1364.951,1886.942v-30.914h-7.6v11.9h-8.084v-11.9h-7.6v30.914h7.6V1874.7h8.084v12.246Z" fill="#fff" fill-rule="evenodd"/>
        <path id="Path_66" data-name="Path 66" d="M1381.9,1886.942v-30.914h-7.595v30.914Zm-.217-33.308v-5.423h-7.117v5.423Z" fill="#fff" fill-rule="evenodd"/>
        <path id="Path_67" data-name="Path 67" d="M1415.719,1886.942l-6.685-12.9a9.383,9.383,0,0,0,3.429-2.913,8.73,8.73,0,0,0,1.606-5.162,10.132,10.132,0,0,0-1.211-4.837,9.388,9.388,0,0,0-3.555-3.657,11.365,11.365,0,0,0-5.785-1.448h-12.245v30.914h7.6v-11.508h2.564l5.476,11.508Zm-9.245-20.972a3.1,3.1,0,0,1-.869,2.167,3.308,3.308,0,0,1-2.434.962h-4.3v-6.259h4.3a3.312,3.312,0,0,1,2.434.962A3.107,3.107,0,0,1,1406.474,1865.97Z" fill="#fff" fill-rule="evenodd"/>
        <path id="Path_68" data-name="Path 68" d="M1469.687,1877.825a8.162,8.162,0,0,0-.71-3.5,6.594,6.594,0,0,0-1.56-2.1,10.152,10.152,0,0,0-1.549-1.127,8.553,8.553,0,0,0,1.3-1.094,7.6,7.6,0,0,0,1.418-2.022,6.958,6.958,0,0,0,.665-3.008,8.608,8.608,0,0,0-2.518-6.474q-2.5-2.41-7.338-2.468h-12.81v30.914h13.462a10.153,10.153,0,0,0,6.887-2.344A8.747,8.747,0,0,0,1469.687,1877.825Zm-8.03-12.463a2.554,2.554,0,0,1-.587,1.717,2.725,2.725,0,0,1-2.151.8h-4.737v-5.043h4.737a2.721,2.721,0,0,1,2.151.805A2.552,2.552,0,0,1,1461.657,1865.362Zm.435,12.029a2.894,2.894,0,0,1-.609,1.858,2.673,2.673,0,0,1-2.173.88h-5.128V1874.7h5.128a2.7,2.7,0,0,1,2.173.858A2.816,2.816,0,0,1,1462.092,1877.391Z" fill="#fff" fill-rule="evenodd"/>
        <path id="Path_69" data-name="Path 69" d="M1499.082,1886.942v-6.769h-13.421v-5.434h11.466v-6.769h-11.466V1862.8h13.421v-6.769h-21.015v30.914Z" fill="#fff" fill-rule="evenodd"/>
        <path id="Path_70" data-name="Path 70" d="M1528.144,1886.942v-6.769h-12.986v-24.145h-7.6v30.914Z" fill="#fff" fill-rule="evenodd"/>
        <path id="Path_71" data-name="Path 71" d="M1556.717,1886.942v-6.769H1543.3v-5.434h11.466v-6.769H1543.3V1862.8h13.42v-6.769H1535.7v30.914Z" fill="#fff" fill-rule="evenodd"/>
        <path id="Path_72" data-name="Path 72" d="M1588.212,1871.485q.04-2.427-.033-4.582a13.89,13.89,0,0,0-.745-4.1,10.129,10.129,0,0,0-2.434-3.74,9.852,9.852,0,0,0-3.761-2.316,13.943,13.943,0,0,0-4.578-.721H1565.2v30.914h11.463a13.943,13.943,0,0,0,4.578-.721,9.849,9.849,0,0,0,3.761-2.316,10.137,10.137,0,0,0,2.434-3.74,13.891,13.891,0,0,0,.745-4.1Q1588.253,1873.911,1588.212,1871.485Zm-7.6,0q0,2.586-.078,3.945a9.955,9.955,0,0,1-.263,1.985,3.066,3.066,0,0,1-.484,1.02,3.648,3.648,0,0,1-1.369,1.26,4.893,4.893,0,0,1-2.282.478h-3.347V1862.8h3.347a4.869,4.869,0,0,1,2.282.478,3.649,3.649,0,0,1,1.369,1.26,3.069,3.069,0,0,1,.484,1.029,10.136,10.136,0,0,1,.263,1.995Q1580.617,1868.919,1580.616,1871.485Z" fill="#fff" fill-rule="evenodd"/>
        <path id="Path_73" data-name="Path 73" d="M1604.168,1886.942v-30.914h-7.595v30.914Zm-.217-33.308v-5.423h-7.117v5.423Z" fill="#fff" fill-rule="evenodd"/>
        <path id="Path_74" data-name="Path 74" d="M1636.685,1856.028h-8.3l-4.818,11.114-4.862-11.114h-8.3l9.338,18.323v12.59h7.6v-12.59Z" fill="#fff" fill-rule="evenodd"/>
        <path id="Path_75" data-name="Path 75" d="M1663.948,1886.942v-6.769h-13.42v-5.434h11.466v-6.769h-11.466V1862.8h13.42v-6.769h-21.015v30.914Z" fill="#fff" fill-rule="evenodd"/>
        <path id="Path_76" data-name="Path 76" d="M1693.183,1877.479a12.47,12.47,0,0,0-.531-3.86,7,7,0,0,0-1.769-2.916,7.727,7.727,0,0,0-2.485-1.624,14.287,14.287,0,0,0-3.592-.939l-3.738-.521a4.311,4.311,0,0,1-1.326-.359,2.805,2.805,0,0,1-.8-.554,2.075,2.075,0,0,1-.483-.749,1.975,1.975,0,0,1-.125-.684,2.614,2.614,0,0,1,.875-1.939,4.133,4.133,0,0,1,2.863-.928,13.1,13.1,0,0,1,2.7.179,6.035,6.035,0,0,1,3.159,1.645l4.774-4.775a11.652,11.652,0,0,0-4.541-2.836,18.012,18.012,0,0,0-5.88-.852q-5.324.081-8.284,2.767a9.151,9.151,0,0,0-3.006,7,10.99,10.99,0,0,0,.527,3.545,7,7,0,0,0,1.6,2.666,10.448,10.448,0,0,0,6.208,2.737l3.737.521a4.867,4.867,0,0,1,1.25.315,2.448,2.448,0,0,1,.793.511,2.178,2.178,0,0,1,.467.814,3.288,3.288,0,0,1,.142,1.01,2.305,2.305,0,0,1-1.092,2.058,6.24,6.24,0,0,1-3.342.722,14.2,14.2,0,0,1-3.779-.483,7.083,7.083,0,0,1-3.125-1.689l-4.862,4.863a12.389,12.389,0,0,0,5.258,3.243,21.307,21.307,0,0,0,6.465.835,15.574,15.574,0,0,0,5.992-1.121,9.995,9.995,0,0,0,4.3-3.283A8.872,8.872,0,0,0,1693.183,1877.479Z" fill="#fff" fill-rule="evenodd"/>
        <path id="Path_77" data-name="Path 77" d="M1708.894,1886.942v-30.914h-7.6v30.914Zm-.217-33.308v-5.423h-7.118v5.423Z" fill="#fff" fill-rule="evenodd"/>
      </g>
    </g>
  </g>
</svg>
